P3
4 4
255
0
0
0
50
0
0
0
0
0
205
0
205
0
0
0
0
205
125
0
0
0
0
0
0
0
0
0
0
0
0
0
0
125
0
0
0
205
0
205
0
0
0
0
0
0
205
205
205
