P3
4 4
255
50
50
50
150
50
50
50
50
50
255
50
255
50
50
50
50
255
225
50
50
50
50
50
50
50
50
50
50
50
50
50
65
225
50
50
50
255
50
255
50
50
50
50
50
50
255
255
255
